<svg xmlns="http://www.w3.org/2000/svg" width="120" height="120" viewBox="0 0 120 120">
  <g id="Group_459987" data-name="Group 459987" transform="translate(-237.5 -360.5)">
    <path id="Path_843860" data-name="Path 843860" d="M237.52,480.711v-120h120v120" transform="translate(-0.02 -0.211)" fill="none"/>
    <g id="그룹_464254" data-name="그룹 464254" transform="translate(265.25 371)">
      <g id="Group_459984" data-name="Group 459984" transform="translate(0 74.481)">
        <g id="그룹_457549" data-name="그룹 457549">
          <g id="그룹_5542" data-name="그룹 5542" transform="translate(0 1.863)">
            <g id="그룹_5541" data-name="그룹 5541">
              <rect id="사각형_2583" data-name="사각형 2583" width="9.495" height="21.331" fill="none" stroke="#040405" stroke-linejoin="round" stroke-width="3"/>
              <path id="패스_69949" data-name="패스 69949" d="M270.067,445.486" transform="translate(-258.104 -444.037)" fill="none" stroke="#040405" stroke-miterlimit="10" stroke-width="3"/>
            </g>
          </g>
          <path id="패스_69949-2" data-name="패스 69949-2" d="M267.218,445.761l6.107-2.963a23.546,23.546,0,0,1,9.294-1.8l17.776,1.926a3.89,3.89,0,0,1,3.476,3.871h0a4.31,4.31,0,0,1-3.72,4.326l-12.814.625" transform="translate(-257.359 -441.001)" fill="none" stroke="#040405" stroke-linecap="round" stroke-miterlimit="10" stroke-width="3"/>
          <path id="패스_842022" data-name="패스 842022" d="M301.128,451.413l13.743-7.623a4.379,4.379,0,0,1,6.139.72l.053.069a4.47,4.47,0,0,1-1.225,6.2l-.01.007h0L305.2,460.863s-7.164,4.535-14.744,4.258-23.235-2.2-23.235-2.2" transform="translate(-257.36 -441.485)" fill="none" stroke="#040405" stroke-linecap="round" stroke-miterlimit="10" stroke-width="3"/>
        </g>
      </g>
      <g id="그룹_459777" data-name="그룹 459777" transform="translate(0.75 0)">
        <g id="그룹_459784" data-name="그룹 459784" transform="translate(10.413 9.909)">
          <circle id="타원_8664" data-name="타원 8664" cx="21.591" cy="21.591" r="21.591" fill="none" stroke="#000" stroke-linecap="round" stroke-linejoin="round" stroke-width="3"/>
          <ellipse id="타원_8665" data-name="타원 8665" cx="11.226" cy="21.591" rx="11.226" ry="21.591" transform="translate(10.364)" fill="none" stroke="#000" stroke-linecap="round" stroke-linejoin="round" stroke-width="3"/>
          <path id="패스_842784" data-name="패스 842784" d="M1198.963,16.331a25.334,25.334,0,0,1-6.743,2.622A37.675,37.675,0,0,1,1182.8,20.1a37.666,37.666,0,0,1-9.423-1.147,25.291,25.291,0,0,1-6.743-2.622" transform="translate(-1161.206 -9.054)" fill="none" stroke="#000" stroke-linecap="round" stroke-linejoin="round" stroke-width="3"/>
          <path id="패스_842785" data-name="패스 842785" d="M1165.63,38.442a23.861,23.861,0,0,1,7.372-3.3,39.69,39.69,0,0,1,20.17,0,23.866,23.866,0,0,1,7.372,3.3" transform="translate(-1161.488 -4.116)" fill="none" stroke="#000" stroke-linecap="round" stroke-linejoin="round" stroke-width="3"/>
          <line id="선_127037" data-name="선 127037" y2="42.893" transform="translate(21.591)" fill="none" stroke="#000" stroke-linecap="round" stroke-linejoin="round" stroke-width="3"/>
          <line id="선_127038" data-name="선 127038" x2="42.893" transform="translate(0.144 21.446)" fill="none" stroke="#000" stroke-linecap="round" stroke-linejoin="round" stroke-width="3"/>
        </g>
        <g id="그룹_459785" data-name="그룹 459785" transform="translate(0 0)">
          <path id="패스_842786" data-name="패스 842786" d="M1162.29,55.411a31.5,31.5,0,0,1,23.484-52.485,31.187,31.187,0,0,1,9.64,1.512" transform="translate(-1154.277 -2.926)" fill="none" stroke="#000" stroke-linecap="round" stroke-linejoin="round" stroke-width="3"/>
          <path id="패스_842787" data-name="패스 842787" d="M1211.644,19.989A31.507,31.507,0,0,1,1168.9,58.414" transform="translate(-1150.153 1.888)" fill="none" stroke="#000" stroke-linecap="round" stroke-linejoin="round" stroke-width="3"/>
          <path id="패스_842788" data-name="패스 842788" d="M1194.677,9.649v4.5h4.5" transform="translate(-1141.38 -3.279)" fill="none" stroke="#000" stroke-linecap="round" stroke-linejoin="round" stroke-width="3"/>
          <path id="패스_842789" data-name="패스 842789" d="M1156.93,45.689l6.016.947.892-5.667" transform="translate(-1153.528 7.806)" fill="none" stroke="#000" stroke-linecap="round" stroke-linejoin="round" stroke-width="3"/>
        </g>
      </g>
    </g>
  </g>
</svg>
